# xmcd
#
# Track frame offsets:
#	150
#	9327
#	28307
#	45572
#	60955
#	76857
#	77537
#	96540
#	111435
#	129252
#	143097
#	160322
#	162755
#	179745
#	197190
#	198000
#	219255
#	236560
#	253287
#	273140
#	273757
#	294042
#	309050
#
# Disc length: 4290 seconds
# Revision: 0
# Processed by: cddbd v1.5.2PL0 Copyright (c) Steve Scherf et al.
# Submitted via: dBpowerAMP V12.0
#
DISCID=2f10c017
DTITLE=Various Artist - Well Connected Compilation
DYEAR=2001
DGENRE=Flint Rap
TTITLE0=Michelle - Gee P. Well Connected {Intro}
TTITLE1=Mc Breed - What We Do 4 Cheeze
TTITLE2=211  - Please God featuring Blue
TTITLE3=Bone Skanless - I Dont Fuck Around
TTITLE4=Bootleg - Summer Time
TTITLE5=Bootleg and Madam Dane - Skit/ Are U F***ing
TTITLE6=Madam Dane - LEft Right Left 
TTITLE7=Top Authority - Stay Up featuring Michelle
TTITLE8=Jake the Flake - Back Stabbers Remix featuring Mc Breed
TTITLE9=Shoestring - Big Butt and Ah Smile
TTITLE10=Astray - It's All Luv featuring Michelle
TTITLE11=Skit BBB's
TTITLE12=Mack The Jacka - Pop It
TTITLE13=Ready Ace - Da Booth
TTITLE14=Skit Leg/Weed
TTITLE15=First Degree - Till I Can't No Moe
TTITLE16=Dangerous D - The Last MF
TTITLE17=Katastrofee - On My Block featuring Shoestring from Dayton Family
TTITLE18=The Dilly Boyz - Dilly Boyz featuring Young Dirt (Pharmacy)
TTITLE19=Skit Leg/Gee
TTITLE20=Foot "G" - Aint ShHH Gone Change
TTITLE21=ILLstreet - 58 Wayz
TTITLE22=Dynasty Society - Detroit Rush
EXTD=
EXTT0=
EXTT1=
EXTT2=
EXTT3=
EXTT4=
EXTT5=
EXTT6=
EXTT7=
EXTT8=
EXTT9=
EXTT10=
EXTT11=
EXTT12=
EXTT13=
EXTT14=
EXTT15=
EXTT16=
EXTT17=
EXTT18=
EXTT19=
EXTT20=
EXTT21=
EXTT22=
PLAYORDER=
